<svg width="20" height="19" viewBox="0 0 20 19" fill="none" xmlns="http://www.w3.org/2000/svg">
<path d="M12.0954 9.18867L12.096 9.18832L18.976 5.25832L19 5.24461L19 13.7479C19 13.7482 19 13.7485 19 13.7488C18.9977 14.7429 18.6017 15.6957 17.8987 16.3987C17.1957 17.1017 16.2429 17.4977 15.2488 17.5C15.2485 17.5 15.2482 17.5 15.2479 17.5L4.75 17.5C3.75544 17.5 2.80161 17.1049 2.09835 16.4017L1.39124 17.1088L2.09835 16.4016C1.75013 16.0534 1.47391 15.64 1.28545 15.1851C1.097 14.7301 1 14.2425 1 13.75V5.24456L1.02236 5.25738L7.87236 9.18739L7.8746 9.18867C8.51752 9.55532 9.24488 9.74815 9.985 9.74815C10.7251 9.74815 11.4525 9.55532 12.0954 9.18867Z" stroke="#6C6C6C" stroke-width="2"/>
</svg>
